<svg height="512pt" viewBox="0 0 512 512.10504" width="512pt" xmlns="http://www.w3.org/2000/svg"><path d="m460.84375 298.667969c-.027344 113.09375-91.703125 204.769531-204.800781 204.796875-4.351563 0-8.617188-.167969-12.796875-.425782-81.589844-5.074218-152.335938-58.199218-179.960938-135.132812-27.625-76.9375-6.828125-162.929688 52.898438-218.742188l36.351562-27.136718c27.609375-16.308594 58.699219-25.816406 90.710938-27.734375 4.265625-.253907 8.53125-.425781 12.796875-.425781 36.40625-.070313 72.160156 9.65625 103.511719 28.160156l36.351562 27.136718c41.472656 38.648438 64.996094 92.8125 64.9375 149.503907zm0 0" fill="#ad1457"/><path d="m435.246094 298.667969c-.046875 108.113281-84.097656 197.585937-192 204.371093-81.589844-5.074218-152.335938-58.199218-179.960938-135.132812-27.625-76.9375-6.828125-162.929688 52.898438-218.742188l36.351562-27.136718c27.609375-16.308594 58.699219-25.816406 90.710938-27.734375 32.007812 1.917969 63.097656 11.425781 90.707031 27.734375l36.351563 27.136718c41.472656 38.648438 65 92.8125 64.941406 149.503907zm0 0" fill="#e91e63"/><path d="m100.992188 239.785156c-4.714844 8.941406-7.148438 18.90625-7.082032 29.015625.011719 30.382813 21.359375 56.578125 51.117188 62.71875l64.253906-24.746093c8.222656-10.949219 12.65625-24.28125 12.628906-37.972657.019532-5.0625-.582031-10.105469-1.792968-15.019531zm0 0" fill="#fff"/><path d="m175.746094 248.574219c2.300781 3.464843 3.515625 7.535156 3.5 11.691406 0 11.78125-9.554688 21.335937-21.335938 21.335937s-21.332031-9.554687-21.332031-21.335937c-.035156-5.894531 2.414063-11.527344 6.742187-15.53125zm0 0" fill="#4caf50"/><path d="m145.109375 402.621094c0 23.839844 22.058594 39.253906 41.730469 29.703125 21.605468-10.277344 45.28125-15.464844 69.203125-15.164063 23.925781-.300781 47.601562 4.886719 69.207031 15.164063 19.625 9.566406 41.726562-5.863281 41.726562-29.703125v-.042969c.125-9.617187-3.8125-18.84375-10.84375-25.40625-27.675781-24.09375-63.410156-36.886719-100.089843-35.839844-36.679688-1.046875-72.410157 11.746094-100.085938 35.839844-7.035156 6.5625-10.972656 15.789063-10.847656 25.40625zm0 0" fill="#4e342e"/><path d="m418.175781 268.800781c-.011719 30.382813-21.359375 56.578125-51.113281 62.71875l-11.859375-4.609375-52.394531-20.136718c-8.222656-10.949219-12.65625-24.28125-12.632813-37.972657-.015625-5.0625.585938-10.105469 1.792969-15.019531l94.890625-11.179688 24.234375-2.816406c4.71875 8.941406 7.152344 18.90625 7.082031 29.015625zm0 0" fill="#cfd8dc"/><path d="m392.578125 268.800781c.054687 25.035157-14.570313 47.777344-37.375 58.109375l-52.394531-20.136718c-8.222656-10.949219-12.65625-24.28125-12.632813-37.972657-.015625-5.0625.585938-10.105469 1.792969-15.019531l94.890625-11.179688c3.828125 8.203126 5.78125 17.148438 5.71875 26.199219zm0 0" fill="#fff"/><path d="m336.34375 248.585938c-2.296875 3.460937-3.515625 7.527343-3.5 11.679687 0 11.78125 9.550781 21.335937 21.332031 21.335937 11.785157 0 21.335938-9.554687 21.335938-21.335937.03125-5.894531-2.414063-11.527344-6.742188-15.53125zm0 0" fill="#4caf50"/><path d="m314.15625 427.519531c-8.234375-3.203125-16.746094-5.628906-25.429688-7.253906-10.765624-2.089844-21.714843-3.121094-32.683593-3.070313-4.007813 0-7.933594.171876-11.773438.425782-13.378906.773437-26.601562 3.269531-39.339843 7.425781-.027344-1.945313.117187-3.886719.425781-5.804687 1.535156-11.519532 7.511719-33.875 23.039062-41.386719 9.386719-3.808594 20.007813-3.054688 28.757813 2.046875h.085937c.257813.171875.597657.257812.855469.429687.082031 0 .253906-.085937.339844-.085937 14.214844-4.21875 29.597656-.472656 40.277344 9.8125 8.585937 10.777344 13.941406 23.765625 15.445312 37.460937zm0 0" fill="#c52828"/><path d="m290.175781 427.519531c-14.710937-5.601562-30.191406-8.941406-45.90625-9.898437-3.925781-.253906-8.023437-.425782-12.203125-.425782-8.945312-.007812-17.875.675782-26.710937 2.046876 1.535156-11.519532 7.511719-33.875 23.039062-41.386719 1.878907.683593 3.757813 1.535156 5.71875 2.476562 7.53125-2.007812 15.4375-2.15625 23.039063-.429687h.085937c.410157.0625.8125.179687 1.195313.34375 6.246094 1.671875 11.898437 5.074218 16.296875 9.8125 7.253906 8.65625 12.082031 19.078125 13.996093 30.207031.632813 2.386719 1.117188 4.808594 1.449219 7.253906zm0 0" fill="#f44335"/><path d="m135.253906 162.132812-62.746094-42.726562c-6.441406 11.675781-19.101562 18.523438-32.398437 17.519531-13.296875-1.003906-24.785156-9.671875-29.402344-22.183593-4.613281-12.507813-1.507812-26.5625 7.949219-35.960938-6.367188-7.644531-9.890625-17.257812-9.976562-27.207031.140624-23.667969 19.296874-42.820313 42.964843-42.957031 9.945313.078124 19.558594 3.601562 27.195313 9.96875 9.40625-9.441407 23.449218-12.535157 35.949218-7.917969 12.5 4.613281 21.164063 16.089843 22.179688 29.375 1.015625 13.285156-5.804688 25.945312-17.457031 32.40625l42.664062 64.085937" fill="#cfd8dc"/><path d="m376.859375 162.132812 62.738281-42.726562c6.445313 11.667969 19.101563 18.503906 32.390625 17.5 13.292969-1.007812 24.777344-9.667969 29.394531-22.171875 4.617188-12.503906 1.523438-26.550781-7.925781-35.953125 6.371094-7.644531 9.890625-17.257812 9.96875-27.207031.089844-16.640625-9.488281-31.820313-24.546875-38.898438-15.058594-7.082031-32.859375-4.773437-45.613281 5.910157-9.398437-9.476563-23.464844-12.59375-35.988281-7.976563-12.523438 4.617187-21.199219 16.117187-22.195313 29.429687-1 13.308594 5.863281 25.976563 17.554688 32.410157l-42.726563 64.085937" fill="#cfd8dc"/><path d="m264.636719 257c.507812 4.292969 4.148437 7.53125 8.472656 7.535156.339844 0 .675781-.019531 1.007813-.0625l7.84375-.921875c-.121094 1.707031-.308594 3.472657-.308594 5.25.007812 7.488281 1.183594 14.929688 3.480468 22.058594l-.417968-.164063c-4.398438-1.691406-9.339844.507813-11.03125 4.90625-1.691406 4.402344.503906 9.34375 4.90625 11.035157l110.933594 42.667969c4.402343 1.691406 9.339843-.507813 11.03125-4.90625 1.695312-4.402344-.503907-9.34375-4.90625-11.035157l-4.992188-1.921875c22.269531-13.015625 35.984375-36.847656 36.054688-62.640625-.023438-7.78125-1.3125-15.503906-3.824219-22.871093 3.289062-2.164063 4.652343-6.308594 3.289062-10-1.359375-3.695313-5.089843-5.960938-8.996093-5.46875l-145.066407 17.066406c-4.679687.550781-8.027343 4.792968-7.476562 9.472656zm102.828125 65.558594-58.976563-22.679688c-6.367187-9.113281-9.78125-19.960937-9.777343-31.078125.007812-2.4375.175781-4.867187.503906-7.28125l25.222656-2.96875c0 .574219-.125 1.136719-.125 1.707031-.207031 11.832032 6.597656 22.671876 17.34375 27.632813 10.742188 4.960937 23.40625 3.105469 32.277344-4.722656 8.875-7.832031 12.289062-20.164063 8.703125-31.441407l23.269531-2.742187c2.476562 6.3125 3.746094 13.035156 3.738281 19.816406-.070312 25.472657-17.457031 47.632813-42.179687 53.757813zm-2.304688-68.761719c1.179688 1.953125 1.808594 4.1875 1.816406 6.46875.003907 5.035156-2.941406 9.605469-7.53125 11.679687-4.589843 2.070313-9.964843 1.261719-13.738281-2.074218-3.777343-3.332032-5.246093-8.566406-3.757812-13.375zm0 0"/><path d="m281.644531 230.398438c1.777344 0 3.507813-.558594 4.949219-1.59375l59.734375-42.667969c2.609375-1.71875 4.074219-4.726563 3.808594-7.84375-.261719-3.117188-2.207031-5.839844-5.070313-7.097657-2.863281-1.253906-6.183594-.847656-8.65625 1.066407l-59.730468 42.667969c-3.015626 2.15625-4.292969 6.015624-3.15625 9.546874 1.132812 3.527344 4.414062 5.921876 8.121093 5.921876zm0 0"/><path d="m238.414062 295.601562c-.8125-2.113281-2.429687-3.820312-4.5-4.738281-2.070312-.921875-4.417968-.980469-6.535156-.167969l-.417968.164063c2.300781-7.128906 3.476562-14.570313 3.484374-22.058594 0-1.777343-.1875-3.507812-.308593-5.25l7.84375.921875c.328125.042969.664062.0625.996093.0625 4.515626-.011718 8.238282-3.535156 8.503907-8.039062.261719-4.507813-3.03125-8.4375-7.511719-8.96875l-145.066406-17.066406c-3.90625-.492188-7.636719 1.773437-9 5.46875-1.363282 3.691406 0 7.835937 3.289062 10-2.503906 7.367187-3.792968 15.089843-3.8125 22.871093.070313 25.796875 13.789063 49.625 36.0625 62.640625l-4.992187 1.921875c-4.402344 1.691407-6.601563 6.632813-4.910157 11.035157 1.695313 4.398437 6.632813 6.597656 11.035157 4.90625l110.933593-42.667969c2.113282-.8125 3.820313-2.429688 4.742188-4.5.917969-2.070313.976562-4.417969.164062-6.535157zm-67.703124-35.335937c0 7.070313-5.730469 12.800781-12.800782 12.800781-7.070312 0-12.800781-5.730468-12.800781-12.800781.003906-2.292969.632813-4.539063 1.820313-6.5l23.210937 2.730469c.375 1.222656.566406 2.492187.570313 3.769531zm-68.265626 8.535156c-.011718-6.789062 1.257813-13.515625 3.738282-19.832031l23.269531 2.738281c-3.382813 11.203125.105469 23.34375 8.910156 31.046875 8.808594 7.699219 21.308594 9.535156 31.957031 4.6875 10.648438-4.847656 17.476563-15.476562 17.457032-27.175781 0-.578125-.09375-1.140625-.128906-1.707031l25.226562 2.972656c.328125 2.40625.496094 4.835938.503906 7.269531-.003906 11.105469-3.417968 21.941407-9.78125 31.042969l-58.972656 22.714844c-24.722656-6.125-42.109375-28.285156-42.179688-53.757813zm0 0"/><path d="m256.042969 332.800781c-38.792969-.996093-76.546875 12.589844-105.8125 38.074219-8.816407 8.175781-13.773438 19.6875-13.652344 31.710938-.285156 14.320312 6.863281 27.765624 18.890625 35.539062 5.71875 3.632812 12.34375 5.574219 19.117188 5.601562 5.542968-.027343 11.007812-1.3125 15.980468-3.765624 20.453125-9.683594 42.851563-14.5625 65.476563-14.265626 22.632812-.285156 45.027343 4.605469 65.476562 14.300782 11.207031 5.605468 24.539063 4.910156 35.097657-1.835938 12.039062-7.78125 19.1875-21.242187 18.894531-35.574218.117187-12.023438-4.839844-23.535157-13.652344-31.710938-29.265625-25.484375-67.023437-39.070312-105.816406-38.074219zm-40.957031 80.527344c1.699218-10.367187 7.019531-19.796875 15.015624-26.613281 7.664063-4.066406 16.941407-3.582032 24.140626 1.253906 1.84375.914062 3.839843 2.0625 5.828124 3.300781 1.929688 1.1875 4.25 1.558594 6.453126 1.035157 2.203124-.527344 4.105468-1.90625 5.289062-3.832032.179688-.378906.324219-.773437.4375-1.179687 7.617188.007812 14.90625 3.105469 20.199219 8.585937 4.65625 5.453125 8.058593 11.863282 9.972656 18.773438-15.117187-4.078125-30.71875-6.105469-46.378906-6.023438-13.789063-.042968-27.535157 1.535156-40.957031 4.699219zm132.460937 10.359375c-5.59375 3.574219-12.652344 3.941406-18.585937.964844-2.449219-1.195313-4.941407-2.296875-7.449219-3.351563-2.011719-13.65625-7.761719-26.492187-16.605469-37.085937-12.066406-12.03125-29.539062-16.882813-46.082031-12.800782-11.964844-6.355468-26.386719-5.976562-38.003907.996094-16.785156 10.890625-22.460937 34.460938-23.972656 46.441406-4.691406 1.707032-9.300781 3.632813-13.773437 5.808594-5.933594 2.964844-12.988281 2.601563-18.585938-.964844-7.011719-4.675781-11.113281-12.648437-10.84375-21.074218-.121093-7.203125 2.796875-14.125 8.039063-19.066406 26.121094-22.652344 59.796875-34.675782 94.359375-33.6875 34.558593-.996094 68.234375 11.015624 94.363281 33.65625 5.25 4.949218 8.167969 11.882812 8.039062 19.097656.261719 8.429687-3.851562 16.394531-10.871093 21.066406zm0 0"/><path d="m225.488281 228.804688c2.46875 1.914062 5.792969 2.324218 8.65625 1.066406 2.859375-1.257813 4.804688-3.980469 5.070313-7.097656.261718-3.117188-1.199219-6.125-3.8125-7.84375l-59.734375-42.667969c-2.472657-1.914063-5.792969-2.320313-8.65625-1.066407-2.863281 1.257813-4.808594 3.980469-5.070313 7.097657-.261718 3.117187 1.199219 6.125 3.8125 7.84375zm0 0"/><path d="m504.996094 76.875c.578125-1.003906 1.117187-2.039062 1.621094-3.078125.425781-.855469.851562-1.707031 1.238281-2.613281.273437-.636719.476562-1.3125.714843-1.960938.941407-2.5 1.6875-5.066406 2.226563-7.679687v-.035157c.71875-3.277343 1.101563-6.621093 1.152344-9.976562-.046875-7.613281-1.796875-15.121094-5.117188-21.972656-2.503906-5.3125-5.898437-10.152344-10.046875-14.308594-.210937-.214844-.46875-.351562-.679687-.554688-2.171875-2.117187-4.523438-4.039062-7.03125-5.742187-.34375-.230469-.703125-.417969-1.042969-.640625-13.863281-9.148438-31.386719-10.75-46.675781-4.269531h-.0625c-2.628907 1.058593-5.167969 2.324219-7.59375 3.789062-7.1875-5.09375-15.777344-7.82812475-24.585938-7.832031h-.109375c-11.304687-.0078125-22.148437 4.488281-30.132812 12.496094-7.980469 8.007812-12.441406 18.863281-12.398438 30.171875.066406 12.214843 5.34375 23.824219 14.507813 31.90625l-24.15625 36.265625c-62.878907-33.972656-138.644531-33.972656-201.523438 0l-24.148437-36.25c9.160156-8.089844 14.429687-19.703125 14.488281-31.921875.066406-11.339844-4.429687-22.230469-12.476563-30.21875-8.097656-7.851563-18.894531-12.308594-30.171874-12.449219-8.804688 0-17.390626 2.730469-24.578126 7.816406-2.429687-1.464844-4.96875-2.734375-7.601562-3.789062h-.0625c-6.070312-2.53125-12.570312-3.871094-19.148438-3.9414065-9.796874.0546875-19.371093 2.9218745-27.585937 8.2578125-.316406.207031-.640625.378906-.957031.582031-2.503906 1.707031-4.851563 3.628907-7.023438 5.742188-.230468.214843-.496094.359375-.714844.582031-4.453124 4.460938-8.042968 9.707031-10.589843 15.46875-.15625.351562-.335938.683594-.488281 1.035156-.152344.347656-.222657.613282-.339844.921875-2.4375 6.011719-3.707032 12.4375-3.746094 18.925781.058594 6.136719 1.238281 12.207032 3.480469 17.917969.203125.566407.382812 1.136719.605469 1.707031.394531.914063.855468 1.800782 1.273437 2.6875.417969.890626 1.003906 1.929688 1.558594 2.886719.292969.503907.503906 1.039063.855469 1.535157-9.230469 12.980468-10.441407 30.027343-3.140626 44.183593 7.300782 14.15625 21.890626 23.054688 37.820313 23.058594h.101563c12.1875-.070313 23.765624-5.324219 31.847656-14.445313l28.234375 19.222657c-81.347657 84-79.917969 217.828125 3.203125 300.070312 83.125 82.238281 216.960937 82.238281 300.085937 0 83.125-82.242187 84.550781-216.070312 3.203125-300.070312l28.246094-19.230469c8.078125 9.121094 19.660156 14.378906 31.847656 14.453125h.117188c15.914062-.035156 30.480468-8.933594 37.78125-23.074219 7.296875-14.136718 6.113281-31.167968-3.074219-44.160156.316406-.476562.519531-.988281.792969-1.46875zm-17.46875 44.1875c-4.765625 4.789062-11.253906 7.472656-18.011719 7.449219h-.070313c-6.609374-.070313-12.9375-2.6875-17.671874-7.304688-.101563-.109375-.128907-.253906-.238282-.359375-5.191406-5.195312-7.902344-12.371094-7.441406-19.703125.140625-2.257812-.621094-4.484375-2.117188-6.179687-1.5-1.699219-3.609374-2.734375-5.871093-2.875-4.675781-.210938-8.675781 3.324218-9.042969 7.988281-.328125 5.449219.398438 10.914063 2.140625 16.085937l-57.171875 38.921876c-2.613281 1.675781-4.109375 4.640624-3.90625 7.738281.203125 3.097656 2.074219 5.839843 4.882812 7.164062 2.808594 1.320313 6.113282 1.011719 8.628907-.804687l13.253906-9.03125c76.578125 76.671875 76.527344 200.898437-.113281 277.507812s-200.867188 76.609375-277.507813 0-76.691406-200.835937-.113281-277.507812l13.269531 9.039062c3.886719 2.496094 9.058594 1.441406 11.660157-2.375 2.605468-3.820312 1.695312-9.015625-2.050782-11.722656l-57.175781-38.914062c1.742187-5.175782 2.46875-10.640626 2.144531-16.09375-.359375-4.667969-4.367187-8.207032-9.046875-7.984376-2.261719.140626-4.371093 1.171876-5.871093 2.871094-1.496094 1.699219-2.257813 3.921875-2.117188 6.179688.460938 7.332031-2.246094 14.507812-7.441406 19.707031-.109375.101563-.136719.246094-.238282.355469-4.710937 4.59375-11 7.203125-17.578124 7.296875h-.109376c-8.878906.042969-17.132812-4.5625-21.757812-12.140625s-4.945312-17.027344-.847656-24.902344c3.863281 3.175781 8.175781 5.765625 12.800781 7.679688 2.851563 1.203124 6.136719.761718 8.574219-1.148438s3.648437-4.992188 3.164062-8.054688c-.488281-3.058593-2.59375-5.613281-5.503906-6.675781-9.277344-3.589843-16.511719-11.074219-19.777344-20.46875-3.269531-9.398437-2.238281-19.757812 2.816406-28.324219.382813-.667968.671876-1.394531 1.109376-2.03125.167968-.257812.40625-.472656.585937-.71875 1.554687-2.128906 3.34375-4.078124 5.335937-5.8125 1.113282-1.03125 2.296876-1.992187 3.539063-2.875.359375-.246093.777344-.398437 1.144531-.628906 11.125-6.796875 25.148438-6.660156 36.136719.347656.316406.207032.617187.425782.921875.640626 5.660156 3.789062 10.011719 9.230468 12.46875 15.582031 1.046875 2.929687 3.605469 5.058593 6.675781 5.554687 3.070313.496094 6.167969-.71875 8.085938-3.171875 1.914062-2.453125 2.34375-5.753906 1.117187-8.613281-1.914062-4.621094-4.5-8.933594-7.679687-12.800781 3.558593-1.855469 7.507812-2.84375 11.519531-2.882813h.078125c6.769531-.007812 13.257813 2.683594 18.039063 7.476563 4.777343 4.789062 7.449218 11.289062 7.425781 18.054687-.066407 6.605469-2.675781 12.933594-7.289063 17.664063-.109375.101562-.265625.136719-.367187.25-5.207031 5.175781-12.378907 7.886719-19.710938 7.4375-4.675781-.214844-8.679687 3.3125-9.054687 7.980469-.140625 2.261718.621094 4.484374 2.117187 6.183593 1.5 1.695313 3.609375 2.730469 5.871094 2.871094.851563.058594 1.78125.085937 2.671875.085937 4.519531-.058593 9.007812-.832031 13.285156-2.296874l38.988282 58.523437c2.617187 3.917969 7.914062 4.976563 11.835937 2.363281 3.921875-2.617187 4.980469-7.917968 2.363281-11.835937l-4.488281-6.742188c57.09375-30.214843 125.4375-30.214843 182.527344 0l-4.480469 6.730469c-2.613281 3.921875-1.554688 9.222656 2.367188 11.835938 3.917968 2.617187 9.21875 1.558593 11.832031-2.363282l38.949219-58.511718c4.273437 1.476562 8.753906 2.261718 13.277343 2.320312.851563 0 1.773438 0 2.671875-.085938 4.710938-.292968 8.292969-4.351562 8-9.066406-.296875-4.710937-4.355468-8.292968-9.066406-8-7.335938.476563-14.523438-2.234375-19.714844-7.441406-.109375-.109375-.246094-.144531-.359375-.238281-4.617187-4.730469-7.230469-11.0625-7.292969-17.671875-.027343-6.773438 2.648438-13.277344 7.433594-18.070313 4.789063-4.789062 11.289063-7.472656 18.0625-7.453125h.078125c4.003907.035156 7.941407 1.015625 11.492188 2.859375-3.175781 3.863281-5.765625 8.175781-7.679688 12.800781-1.714843 4.390626.453125 9.339844 4.84375 11.054688s9.339844-.453125 11.054688-4.84375c1.726562-4.375 4.339843-8.34375 7.679687-11.65625 1.488282-1.457031 3.105469-2.777344 4.832032-3.941406.296874-.207032.585937-.417969.851562-.617188 10.90625-6.933594 24.789062-7.125 35.882812-.492187.460938.28125.980469.476562 1.425782.777343 1.242187.882813 2.425781 1.84375 3.539062 2.882813 1.410156 1.253906 2.714844 2.617187 3.910156 4.078125.671876.855469 1.441407 1.597656 2.03125 2.476562.230469.339844.382813.742188.597657 1.089844 5.304687 8.597656 6.53125 19.101563 3.347656 28.6875-3.183594 9.585938-10.449219 17.273438-19.84375 20.984375-2.929687 1.046875-5.058594 3.605469-5.554687 6.679688-.496094 3.070312.71875 6.167969 3.171874 8.082031 2.453126 1.914062 5.753907 2.34375 8.613282 1.121094 4.625-1.910156 8.9375-4.5 12.800781-7.679688 5.109375 9.804688 3.25 21.796875-4.59375 29.59375zm0 0"/></svg>