<?xml version="1.0" encoding="iso-8859-1"?>
<!-- Generator: Adobe Illustrator 19.0.0, SVG Export Plug-In . SVG Version: 6.00 Build 0)  -->
<svg version="1.1" id="Capa_1" xmlns="http://www.w3.org/2000/svg" xmlns:xlink="http://www.w3.org/1999/xlink" x="0px" y="0px"
	 viewBox="0 0 504.664 504.664" style="enable-background:new 0 0 504.664 504.664;" xml:space="preserve">
<g transform="translate(0 -1)">
	<path style="fill:#71C285;" d="M260.012,60.738h0.853c63.488,0,130.475,18.347,178.944,60.928
		c25.755,22.304,43.175,52.691,49.408,86.187c6.229,35.669-1.451,75.776-9.557,110.592c-7.585,32.33-18.717,63.724-33.195,93.611
		c-26.539,54.955-82.603,106.923-148.48,90.539c-16.748-4.53-32.32-12.622-45.653-23.723
		c-13.333,11.101-28.906,19.192-45.653,23.723c-65.877,16.384-121.941-35.584-148.48-90.539
		c-14.477-29.886-25.61-61.28-33.195-93.611c-8.107-34.816-15.787-74.923-9.557-110.592c6.233-33.495,23.653-63.882,49.408-86.187
		c14.919-13.009,31.506-23.972,49.323-32.597L260.012,60.738z"/>
	<path style="fill:#AF8066;" d="M252.324,171.671c-4.285-0.005-7.903-3.184-8.458-7.433c-0.733-5.675-17.05-139.217,65.858-162.908
		c4.533-1.293,9.257,1.333,10.55,5.867c1.293,4.533-1.333,9.257-5.867,10.55c-68.933,19.692-53.775,143.05-53.608,144.292
		c0.6,4.674-2.695,8.952-7.367,9.567C253.064,171.647,252.694,171.67,252.324,171.671L252.324,171.671z"/>
	<path style="fill:#527F72;" d="M196.13,15.704c32.319,10.084,54.815,39.391,56.203,73.218
		c-21.739,25.955-57.443,35.448-89.203,23.719c-56.547-19.25-88.515-84.218-88.515-84.218S139.583-3.545,196.13,15.704z"/>
	<g>
		
			<ellipse transform="matrix(-0.2082 0.9781 -0.9781 -0.2082 301.8526 168.6622)" style="fill:#7ED09E;" cx="82.657" cy="206.512" rx="35.18" ry="26.16"/>
		<ellipse style="fill:#7ED09E;" cx="86.491" cy="301.21" rx="21.888" ry="25.685"/>
	</g>
	<g>
		<path style="fill:#4C8056;" d="M380.332,453.271c-2.27,0.022-4.454-0.869-6.059-2.475c-0.752-0.831-1.358-1.783-1.792-2.817
			c-0.911-2.065-0.911-4.418,0-6.483c0.432-1.035,1.038-1.987,1.792-2.817c0.816-0.772,1.772-1.38,2.817-1.792
			c1.556-0.684,3.286-0.865,4.95-0.517c0.533,0.098,1.05,0.272,1.533,0.517c0.544,0.184,1.06,0.442,1.533,0.767
			c0.448,0.316,0.877,0.658,1.284,1.025c0.754,0.829,1.36,1.782,1.792,2.817c0.911,2.065,0.911,4.418,0,6.483
			c-0.434,1.034-1.04,1.986-1.792,2.817C384.784,452.399,382.602,453.29,380.332,453.271L380.332,453.271z"/>
		<path style="fill:#4C8056;" d="M397.399,419.138c-1.115-0.014-2.216-0.246-3.242-0.683c-1.045-0.412-2.001-1.02-2.817-1.792
			c-1.606-1.604-2.498-3.788-2.475-6.058c-0.031-1.119,0.203-2.23,0.683-3.242c0.432-1.035,1.038-1.987,1.792-2.817
			c2.014-2,4.892-2.866,7.675-2.308c0.566,0.083,1.115,0.258,1.625,0.517c0.525,0.168,1.016,0.427,1.45,0.767
			c0.489,0.294,0.947,0.637,1.367,1.025c0.754,0.829,1.36,1.782,1.792,2.817c1.362,3.175,0.652,6.859-1.792,9.301
			c-0.831,0.752-1.783,1.358-2.817,1.792C399.615,418.893,398.514,419.125,397.399,419.138L397.399,419.138z"/>
		<path style="fill:#4C8056;" d="M363.266,419.138c-2.27,0.022-4.453-0.87-6.058-2.475s-2.497-3.788-2.475-6.058
			c0.03-2.26,0.914-4.424,2.475-6.059c0.802-0.79,1.762-1.401,2.817-1.792c3.177-1.341,6.849-0.633,9.3,1.792
			c0.754,0.829,1.36,1.782,1.792,2.817c0.911,2.065,0.911,4.418,0,6.483c-0.777,2.143-2.465,3.831-4.608,4.608
			C365.482,418.892,364.381,419.124,363.266,419.138z"/>
		<path style="fill:#4C8056;" d="M346.199,453.271c-1.115-0.014-2.216-0.246-3.242-0.683c-1.035-0.432-1.987-1.038-2.817-1.792
			c-0.777-0.83-1.413-1.781-1.883-2.817c-0.408-1.031-0.609-2.132-0.592-3.241c0.03-2.26,0.914-4.424,2.475-6.059
			c2.451-2.426,6.123-3.134,9.3-1.792c1.034,0.434,1.986,1.04,2.817,1.792c0.772,0.816,1.38,1.772,1.792,2.817
			c0.911,2.065,0.911,4.418,0,6.483c-0.777,2.143-2.465,3.831-4.608,4.608C348.416,453.025,347.314,453.257,346.199,453.271
			L346.199,453.271z"/>
		<path style="fill:#4C8056;" d="M380.332,385.005c-2.27,0.022-4.454-0.869-6.059-2.475c-0.752-0.831-1.358-1.783-1.792-2.817
			c-0.437-1.026-0.669-2.127-0.683-3.242c0.03-2.26,0.914-4.424,2.475-6.059c0.816-0.772,1.772-1.38,2.817-1.792
			c1.556-0.684,3.286-0.865,4.95-0.517c0.533,0.098,1.05,0.272,1.533,0.517c0.544,0.184,1.06,0.442,1.533,0.767
			c0.425,0.341,0.858,0.683,1.283,1.025c1.558,1.636,2.442,3.8,2.475,6.059c-0.014,1.115-0.246,2.216-0.683,3.242
			c-0.434,1.034-1.04,1.986-1.792,2.817C384.784,384.132,382.602,385.024,380.332,385.005z"/>
		<path style="fill:#4C8056;" d="M414.466,385.005c-2.27,0.022-4.454-0.869-6.059-2.475c-0.777-0.83-1.413-1.781-1.883-2.817
			c-0.789-2.089-0.789-4.394,0-6.483c0.498-1.02,1.132-1.967,1.883-2.817c0.404-0.367,0.83-0.709,1.275-1.025
			c0.496-0.318,1.01-0.604,1.542-0.858c0.501-0.176,1.013-0.318,1.533-0.425c1.094-0.25,2.231-0.25,3.325,0
			c0.553,0.096,1.096,0.238,1.625,0.425c1.005,0.523,1.95,1.155,2.817,1.883c0.772,0.816,1.38,1.772,1.792,2.817
			c0.911,2.065,0.911,4.418,0,6.483c-0.777,2.143-2.465,3.831-4.608,4.608C416.683,384.759,415.581,384.991,414.466,385.005
			L414.466,385.005z"/>
		<path style="fill:#4C8056;" d="M252.332,171.671c-12.936,0.044-25.835-1.379-38.45-4.242c-11.155-2.465-21.923-6.434-32.009-11.8
			c-4.116-2.265-5.627-7.433-3.378-11.558c2.249-4.126,7.41-5.657,11.544-3.425c8.722,4.623,18.032,8.038,27.675,10.15
			c22.802,5.05,46.432,5.05,69.233,0c9.643-2.112,18.953-5.527,27.675-10.15c4.135-2.232,9.296-0.701,11.544,3.425
			c2.249,4.126,0.738,9.293-3.378,11.558c-10.086,5.366-20.854,9.335-32.009,11.8C278.167,170.292,265.268,171.715,252.332,171.671
			L252.332,171.671z"/>
	</g>
</g>
<g>
</g>
<g>
</g>
<g>
</g>
<g>
</g>
<g>
</g>
<g>
</g>
<g>
</g>
<g>
</g>
<g>
</g>
<g>
</g>
<g>
</g>
<g>
</g>
<g>
</g>
<g>
</g>
<g>
</g>
</svg>
