<svg height="512pt" viewBox="-18 0 512 512.08096" width="512pt" xmlns="http://www.w3.org/2000/svg"><path d="m238.386719 453.941406c-27.414063-.148437-54.765625 2.691406-81.566407 8.472656-11.5625 2.535157-22.949218 5.839844-34.074218 9.886719-5.179688 1.90625-10.636719 2.953125-16.152344 3.089844-17.199219.503906-33.535156-7.515625-43.652344-21.429687-10.117187-13.914063-12.710937-31.925782-6.929687-48.132813 2.1875-5.957031 1.082031-12.628906-2.914063-17.566406-78.722656-97.296875-68.78125-238.910157 22.765625-324.253907 91.542969-85.34375 233.507813-85.34375 325.050781 0 91.546876 85.34375 101.488282 226.957032 22.765626 324.253907-3.996094 4.96875-5.101563 11.667969-2.914063 17.65625 6.910156 18.976562 2.179687 40.238281-12.117187 54.5-14.300782 14.257812-35.574219 18.929687-54.53125 11.972656-3.089844-1.058594-6.53125-2.296875-10.503907-3.621094zm0 0" fill="#f0c419"/><path d="m69.78125 132c18.351562 12.355469 66.65625 35.945312 127.160156-4.328125 6.675782-4.457031 9.152344-13.089844 5.855469-20.410156-8.203125-18.085938-25.019531-47.800781-41.421875-32.09375-21.882812 20.945312-22.730469 35.308593-89.90625 48.886719-1.738281.339843-3.101562 1.683593-3.46875 3.414062s.332031 3.511719 1.78125 4.53125zm0 0" fill="#e57e25"/><path d="m344.320312 433.371094c9.003907 2.5625 16.242188 5.121094 21.980469 7.152344 8.011719 2.867187 16.882813-.898438 20.390625-8.652344 3.574219-7.300782 1.675782-16.097656-4.589844-21.273438-11.910156-9.53125-24.542968-18.117187-37.78125-25.6875-.972656-.621094-2.03125-1.148437-3.089843-1.765625-31.195313-18.519531-66.582031-28.816406-102.84375-29.925781-64.617188 0-121.113281 39.28125-143.710938 57.378906-6.265625 5.175782-8.164062 13.972656-4.589843 21.273438 3.609374 7.648437 12.382812 11.371094 20.390624 8.652344 41.058594-14.507813 84.371094-21.59375 127.910157-20.921876zm0 0" fill="#802d40"/><path d="m157.792969 146.121094c31.40625 12.164062 49.824219 44.839844 43.964843 78.003906-5.855468 33.164062-34.355468 57.554688-68.027343 58.222656-33.671875.664063-63.109375-22.578125-70.277344-55.484375-7.164063-32.90625 9.945313-66.285156 40.84375-79.679687zm0 0" fill="#fff"/><path d="m150.289062 277.867188c-17.332031.03125-33.960937-6.84375-46.210937-19.105469-19.5-19.542969-19.5-51.183594 0-70.726563 15.164063-15.152344 39.738281-15.152344 54.90625 0 5.753906 5.753906 8.988281 13.558594 8.988281 21.695313s-3.234375 15.941406-8.988281 21.691406c-4.632813 4.660156-10.9375 7.269531-17.503906 7.25-6.570313.007813-12.871094-2.609375-17.496094-7.273437-2.230469-2.234376-3.101563-5.484376-2.285156-8.53125.820312-3.046876 3.199219-5.425782 6.246093-6.242188 3.046876-.8125 6.296876.058594 8.527344 2.289062 1.324219 1.335938 3.128906 2.082032 5.007813 2.074219 1.878906.003907 3.683593-.742187 5.011719-2.074219 2.445312-2.441406 3.820312-5.753906 3.820312-9.210937s-1.375-6.769531-3.820312-9.210937c-8.269532-8.261719-21.671876-8.261719-29.941407 0-12.617187 12.644531-12.617187 33.117187 0 45.761718 18.644531 18.582032 48.804688 18.582032 67.449219 0 3.457031-3.449218 9.050781-3.445312 12.5.007813s3.445312 9.050781-.007812 12.5c-12.246094 12.261719-28.875 19.136719-46.203126 19.105469zm0 0" fill="#2fa8cc"/><path d="m369.65625 146.121094c31.402344 12.164062 49.824219 44.839844 43.964844 78.003906s-34.355469 57.554688-68.027344 58.222656c-33.671875.664063-63.113281-22.578125-70.277344-55.484375-7.167968-32.90625 9.941406-66.285156 40.84375-79.679687zm0 0" fill="#fff"/><path d="m362.152344 277.867188c-17.332032.03125-33.964844-6.84375-46.214844-19.105469-19.496094-19.542969-19.496094-51.183594 0-70.726563 15.167969-15.152344 39.742188-15.152344 54.910156 0 5.753906 5.753906 8.984375 13.558594 8.984375 21.695313s-3.230469 15.941406-8.984375 21.691406c-4.632812 4.660156-10.9375 7.269531-17.507812 7.25-6.570313.007813-12.867188-2.609375-17.496094-7.273437-2.230469-2.234376-3.097656-5.484376-2.28125-8.53125.816406-3.046876 3.199219-5.425782 6.246094-6.242188 3.046875-.8125 6.296875.058594 8.527344 2.289062 1.324218 1.335938 3.125 2.082032 5.003906 2.074219 1.882812.003907 3.6875-.742187 5.015625-2.074219 2.445312-2.441406 3.816406-5.753906 3.816406-9.210937s-1.371094-6.769531-3.816406-9.210937c-8.273438-8.261719-21.671875-8.261719-29.945313 0-12.613281 12.644531-12.613281 33.117187 0 45.761718 18.644532 18.582032 48.808594 18.582032 67.453125 0 3.453125-3.449218 9.050781-3.445312 12.5.007813s3.445313 9.050781-.007812 12.5c-12.246094 12.261719-28.875 19.136719-46.203125 19.105469zm0 0" fill="#2fa8cc"/><path d="m406.996094 132c-18.351563 12.355469-66.65625 35.945312-127.117188-4.328125-6.675781-4.457031-9.152344-13.089844-5.855468-20.410156 8.203124-18.085938 25.019531-47.800781 41.421874-32.09375 21.882813 20.945312 22.730469 35.308593 89.90625 48.886719 1.730469.351562 3.082032 1.703124 3.441407 3.429687.355469 1.730469-.351563 3.503906-1.796875 4.515625zm0 0" fill="#e57e25"/><path d="m344.320312 384.910156v75.828125c-.007812 2.691407-.246093 5.378907-.707031 8.03125-4.984375 26.621094-29.210937 45.21875-56.214843 43.15625-27-2.0625-48.121094-24.121093-49.011719-51.1875v-107.519531c36.261719 1.109375 71.648437 11.40625 102.84375 29.925781 1.058593.617188 2.117187 1.144531 3.089843 1.765625zm0 0" fill="#ff5364"/><path d="m300.179688 364.429688v40.164062c0 4.875-3.949219 8.828125-8.824219 8.828125-4.878907 0-8.828125-3.953125-8.828125-8.828125v-42.546875c-.003906-.96875.175781-1.925781.527344-2.828125zm0 0" fill="#c03a2b"/></svg>