<svg height="512pt" viewBox="-18 0 512 512.12667" width="512pt" xmlns="http://www.w3.org/2000/svg"><path d="m476.753906 300.265625c0 116.964844-106.726562 211.859375-238.347656 211.859375-131.617188 0-238.34375-94.894531-238.34375-211.859375-.0117188-22.144531 3.875-44.113281 11.476562-64.910156 3.679688-9.9375 5.964844-20.332031 6.789063-30.898438 8.5-115.257812 104.484375-204.4374998 220.054687-204.457031 115.574219-.0195312 211.585938 89.132812 220.125 204.386719.820313 10.5625 3.097657 20.960937 6.769532 30.898437 7.601562 20.820313 11.484375 42.816406 11.476562 64.980469zm0 0" fill="#f0c419"/><path d="m240.878906 336.121094c93.8125 0 172.808594-62.339844 172.808594-62.339844-.0625 2.144531.125 4.285156.566406 6.382812.421875 5.800782.636719 11.617188.6875 17.433594.296875 18.226563-1.292968 36.4375-4.75 54.335938-9.859375 49.292968-48.117187 86.199218-95.59375 103.28125-24.46875 8.617187-50.246094 12.9375-76.191406 12.773437-25.941406.171875-51.714844-4.144531-76.1875-12.753906-47.476562-17.101563-85.734375-54.007813-95.59375-103.285156-3.460938-17.898438-5.058594-36.105469-4.769531-54.332031.054687-5.816407.265625-11.636719.691406-17.433594.445313-2.105469.640625-4.253906.582031-6.402344 0 0 78.996094 62.339844 172.808594 62.339844zm0 0" fill="#fff"/><g fill="#bdc3c7"><path d="m240.878906 406.726562h-4.941406c-91.347656 0-168.609375-56.851562-177.136719-63.339843-3.746093-2.992188-4.417969-8.425781-1.511719-12.242188 2.902344-3.816406 8.320313-4.617187 12.203126-1.800781 8.023437 6.117188 80.886718 59.726562 166.445312 59.726562h4.941406c85.558594 0 158.421875-53.609374 166.445313-59.726562 3.882812-2.816406 9.300781-2.015625 12.203125 1.800781 2.90625 3.816407 2.234375 9.25-1.511719 12.242188-8.511719 6.488281-85.789063 63.339843-177.136719 63.339843zm0 0"/><path d="m238.40625 476.816406c-4.875 0-8.824219-3.953125-8.824219-8.828125v-131.882812c0-4.875 3.949219-8.828125 8.824219-8.828125 4.878906 0 8.828125 3.953125 8.828125 8.828125v131.882812c0 4.875-3.949219 8.828125-8.828125 8.828125zm0 0"/><path d="m167.789062 465.957031c-4.875 0-8.828124-3.949219-8.828124-8.828125v-130.382812c0-4.875 3.953124-8.828125 8.828124-8.828125s8.824219 3.953125 8.824219 8.828125v130.382812c0 4.878906-3.949219 8.828125-8.824219 8.828125zm0 0"/><path d="m105.996094 430.03125c-4.878906 0-8.828125-3.953125-8.828125-8.828125v-120.496094c0-4.875 3.949219-8.828125 8.828125-8.828125 4.875 0 8.824218 3.953125 8.824218 8.828125v120.496094c0 4.875-3.949218 8.828125-8.824218 8.828125zm0 0"/><path d="m370.820312 430.03125c-4.875 0-8.824218-3.953125-8.824218-8.828125v-120.496094c0-4.875 3.949218-8.828125 8.824218-8.828125 4.878907 0 8.828126 3.953125 8.828126 8.828125v120.496094c0 4.875-3.949219 8.828125-8.828126 8.828125zm0 0"/><path d="m309.027344 465.957031c-4.875 0-8.824219-3.949219-8.824219-8.828125v-130.382812c0-4.875 3.949219-8.828125 8.824219-8.828125s8.828125 3.953125 8.828125 8.828125v130.382812c0 4.878906-3.953125 8.828125-8.828125 8.828125zm0 0"/></g><path d="m185.441406 238.472656c-2.777344 0-5.394531-1.308594-7.0625-3.53125-48.1875-64.25-121.035156-32.867187-121.765625-32.539062-4.457031 1.980468-9.671875-.027344-11.652343-4.484375-1.980469-4.457031.027343-9.671875 4.484374-11.652344.882813-.378906 86.511719-37.28125 143.058594 38.082031 2.007813 2.675782 2.328125 6.253906.835938 9.242188-1.496094 2.992187-4.554688 4.882812-7.898438 4.882812zm0 0" fill="#2c3e50"/><path d="m291.375 238.472656c-3.34375 0-6.402344-1.890625-7.898438-4.882812-1.492187-2.988282-1.171874-6.566406.835938-9.242188 56.496094-75.363281 142.203125-38.453125 143.058594-38.082031 2.882812 1.277344 4.867187 3.996094 5.203125 7.132813.335937 3.136718-1.027344 6.214843-3.574219 8.070312-2.546875 1.859375-5.894531 2.21875-8.777344.941406-2.992187-1.316406-73.792968-31.453125-121.820312 32.53125-1.660156 2.210938-4.261719 3.519532-7.027344 3.53125zm0 0" fill="#2c3e50"/><path d="m238.40625 476.816406c-26.960938.199219-53.75-4.28125-79.179688-13.242187-53.488281-19.304688-91.339843-60.378907-101.253906-109.910157-3.574218-18.5-5.230468-37.316406-4.945312-56.152343.054687-5.996094.273437-11.988281.707031-17.984375 0-.324219.105469-.941406.230469-1.765625.125-.820313.316406-1.84375.40625-2.71875-.515625-3.566407 1.191406-7.085938 4.308594-8.894531 3.117187-1.808594 7.019531-1.539063 9.859374.675781.769532.609375 77.824219 60.453125 167.351563 60.453125h4.925781c89.53125 0 166.585938-59.84375 167.355469-60.453125 2.839844-2.183594 6.722656-2.433594 9.820313-.628907 3.097656 1.800782 4.800781 5.296876 4.304687 8.847657.085937.882812.28125 1.980469.40625 2.71875.121094.742187.203125 1.441406.21875 1.660156.441406 6.101563.664063 12.09375.714844 18.097656.292969 18.832031-1.355469 37.640625-4.925781 56.132813-9.78125 49.542968-47.632813 90.617187-101.121094 109.921875-25.429688 8.960937-52.21875 13.441406-79.183594 13.242187zm-167.535156-186.667968c-.089844 2.523437-.144532 5.023437-.167969 7.53125-.285156 17.617187 1.25 35.21875 4.582031 52.523437 8.683594 43.414063 42.300782 79.570313 89.925782 96.722656 23.507812 8.28125 48.273437 12.421875 73.195312 12.234375 24.925781.1875 49.691406-3.953125 73.199219-12.234375 47.625-17.152343 81.214843-53.308593 89.925781-96.730469 3.339844-17.300781 4.878906-34.902343 4.601562-52.515624 0-2.507813-.078124-5.023438-.167968-7.53125-26.773438 17.902343-90.925782 54.800781-165.074219 54.800781h-4.925781c-74.136719 0-138.3125-36.898438-165.09375-54.800781zm0 0" fill="#e57e25"/><path d="m35.375 309.003906h-.167969c-4.792969-.054687-8.652343-3.949218-8.660156-8.738281 0-1.765625.785156-43.078125 69.367187-52.878906 3.121094-.445313 6.246094.804687 8.195313 3.285156s2.425781 5.8125 1.253906 8.738281c-1.175781 2.929688-3.820312 5.007813-6.941406 5.457032-52.585937 7.511718-54.175781 34.425781-54.21875 35.554687-.175781 4.761719-4.066406 8.542969-8.828125 8.582031zm0 0" fill="#d25627"/><path d="m441.441406 309.09375c-4.824218 0-8.753906-3.875-8.828125-8.695312-.058593-1.421876-1.929687-28.0625-54.21875-35.53125-4.824219-.695313-8.175781-5.167969-7.484375-9.992188.691406-4.828125 5.167969-8.179688 9.992188-7.488281 68.582031 9.800781 69.367187 51.113281 69.367187 52.878906 0 4.875-3.953125 8.828125-8.828125 8.828125zm0 0" fill="#d25627"/></svg>