<svg height="512pt" viewBox="0 -30 512.00003 512" width="512pt" xmlns="http://www.w3.org/2000/svg"><path d="m392.535156 245.332031-100.183594 56.746094-8.019531 4.269531-26.625 15.359375-94.890625 53.757813-16.554687-29.863282 76.800781-43.523437 14.503906-8.019531 20.140625-11.605469 65.449219-37.121094zm0 0" fill="#9e9e9e"/><path d="m121.171875 245.332031 100.183594 56.746094 34.644531 19.628906 94.890625 53.757813 16.554687-29.863282-76.800781-43.523437-34.644531-19.625-65.449219-37.121094zm0 0" fill="#9e9e9e"/><path d="m405.332031 332.800781c-2.855469.011719-5.707031.238281-8.53125.683594-26.949219 4.265625-46.792969 27.5-46.792969 54.78125 0 27.285156 19.84375 50.515625 46.792969 54.785156 20.617188 3.265625 41.320313-5.324219 53.574219-22.222656 12.257812-16.898437 13.984375-39.246094 4.476562-57.828125-9.507812-18.582031-28.644531-30.253906-49.519531-30.199219zm-21.332031 55.464844c-.015625-8.507813 5.058594-16.203125 12.886719-19.539063 1.558593-.769531 3.226562-1.285156 4.949219-1.539062h.085937c1.128906-.171875 2.269531-.257812 3.410156-.253906 11.785157 0 21.335938 9.550781 21.335938 21.332031s-9.550781 21.335937-21.335938 21.335937c-2.9375.015626-5.847656-.597656-8.53125-1.792968-7.785156-3.375-12.816406-11.058594-12.800781-19.542969zm0 0" fill="#37474f"/><path d="m106.667969 332.800781c-30.632813 0-55.46875 24.832031-55.46875 55.464844s24.835937 55.46875 55.46875 55.46875c30.632812 0 55.464843-24.835937 55.464843-55.46875 0-14.710937-5.84375-28.816406-16.246093-39.21875-10.402344-10.402344-24.507813-16.246094-39.21875-16.246094zm19.199219 64.851563-.085938.085937c-4.671875 9.429688-15.523438 14.042969-25.554688 10.867188-10.035156-3.179688-16.25-13.199219-14.644531-23.597657 1.609375-10.402343 10.5625-18.074218 21.085938-18.074218 1.140625-.003906 2.28125.082031 3.410156.253906h.085937c10.304688 1.714844 17.851563 10.636719 17.835938 21.078125.003906 3.25-.726562 6.457031-2.132812 9.386719zm0 0" fill="#607d8b"/><path d="m503.464844 187.734375v42.664063c-.027344 9.414062-7.652344 17.039062-17.066406 17.066406h-460.796876c-9.414062-.027344-17.039062-7.652344-17.066406-17.066406v-42.664063zm0 0" fill="#d84315"/><path d="m17.066406 8.535156c14.140625 0 25.601563 11.460938 25.601563 25.597656v162.132813h-34.132813v-179.199219c0-4.710937 3.820313-8.53125 8.53125-8.53125zm0 0" fill="#607d8b"/><path d="m503.464844 110.933594v85.332031h-34.132813v-68.265625c0-6.789062 2.703125-13.296875 7.511719-18.089844 4.777344-4.828125 11.296875-7.535156 18.089844-7.511718 4.710937 0 8.53125 3.820312 8.53125 8.535156zm0 0" fill="#9e9e9e"/><path d="m392.535156 333.484375c-10.191406 1.773437-19.542968 6.765625-26.6875 14.25-10.382812 10.925781-16.117187 25.460937-15.980468 40.53125-.941407 26.191406 17.042968 49.28125 42.667968 54.785156 25.082032-6.34375 42.65625-28.910156 42.65625-54.785156 0-25.871094-17.574218-48.441406-42.65625-54.78125zm7.753906 76.117187c-2.6875.011719-5.34375-.605468-7.753906-1.792968-2.410156 1.195312-14.046875-24.917969-11.640625-23.808594 1.398438-.769531 14.667969-16.554688 16.210938-16.8125h.078125c1.027344-.171875 2.066406-.257812 3.105468-.253906 11.011719 1.035156 19.425782 10.273437 19.425782 21.332031s-8.414063 20.300781-19.425782 21.335937zm0 0" fill="#607d8b"/><path d="m477.867188 187.734375v42.664063c.054687 9.332031-7.429688 16.957031-16.761719 17.066406h-435.8125c-9.328125-.109375-16.816407-7.734375-16.757813-17.066406l-.003906-42.664063zm0 0" fill="#ff5722"/><path d="m477.867188 110.933594v85.332031h-25.601563v-8.53125h12.800781v-59.734375c-.101562-6.476562 1.871094-12.816406 5.632813-18.089844 1.457031-1.980468 3.253906-3.683594 5.308593-5.035156 1.242188 1.773438 1.894532 3.894531 1.859376 6.058594zm0 0" fill="#f5f5f5"/><g fill="#35495e"><path d="m469.332031 204.800781h-426.664062c-4.714844 0-8.535157-3.820312-8.535157-8.535156v-68.265625c0-18.851562 15.28125-34.132812 34.132813-34.132812h375.46875c18.851563 0 34.132813 15.28125 34.132813 34.132812v68.265625c0 4.714844-3.820313 8.535156-8.535157 8.535156zm-418.132812-17.066406h409.601562v-59.734375c0-9.425781-7.640625-17.066406-17.066406-17.066406h-375.46875c-9.425781 0-17.066406 7.640625-17.066406 17.066406zm0 0"/><path d="m153.601562 204.800781c-4.714843 0-8.535156-3.820312-8.535156-8.535156v-93.867187c0-4.710938 3.820313-8.53125 8.535156-8.53125 4.710938 0 8.53125 3.820312 8.53125 8.53125v93.867187c0 4.714844-3.820312 8.535156-8.53125 8.535156zm0 0"/><path d="m256 204.800781c-4.710938 0-8.535156-3.820312-8.535156-8.535156v-93.867187c0-4.710938 3.824218-8.53125 8.535156-8.53125s8.535156 3.820312 8.535156 8.53125v93.867187c0 4.714844-3.824218 8.535156-8.535156 8.535156zm0 0"/><path d="m358.398438 204.800781c-4.710938 0-8.53125-3.820312-8.53125-8.535156v-93.867187c0-4.710938 3.820312-8.53125 8.53125-8.53125 4.714843 0 8.535156 3.820312 8.535156 8.53125v93.867187c0 4.714844-3.820313 8.535156-8.535156 8.535156zm0 0"/></g><path d="m25.601562 256h93.320313l85.117187 48.222656-58.632812 33.21875c-23.640625-17.957031-56.535156-17.273437-79.414062 1.652344-22.875 18.929688-29.707032 51.113281-16.492188 77.703125 13.214844 26.585937 42.992188 40.574219 71.894531 33.769531 28.898438-6.800781 49.308594-32.609375 49.273438-62.300781 0-2.054687-.121094-4.085937-.308594-6.101563l85.640625-48.511718 85.640625 48.511718c-.1875 2.015626-.308594 4.046876-.308594 6.101563-.105469 29.863281 20.378907 55.859375 49.4375 62.738281 29.058594 6.875 59.023438-7.179687 72.3125-33.917968 13.289063-26.742188 6.398438-59.113282-16.632812-78.125-23.027344-19.007813-56.121094-19.636719-79.855469-1.519532l-58.632812-33.226562 85.117187-48.214844h93.320313c14.140624 0 25.601562-11.460938 25.601562-25.601562v-119.464844c0-9.425782-7.640625-17.066406-17.066406-17.066406-9.839844.03125-19.179688 4.335937-25.601563 11.792968-6.417969-7.457031-15.757812-11.761718-25.597656-11.792968h-375.46875c-6.007813.035156-11.898437 1.671874-17.066406 4.742187v-64.476563c0-18.851562-15.28125-34.132812-34.132813-34.132812-9.425781 0-17.066406 7.640625-17.066406 17.066406v213.332032c0 14.140624 11.460938 25.601562 25.601562 25.601562zm81.066407 179.199219c-25.921875 0-46.933594-21.011719-46.933594-46.933594 0-25.917969 21.011719-46.933594 46.933594-46.933594 25.917969 0 46.933593 21.015625 46.933593 46.933594-.03125 25.910156-21.027343 46.90625-46.933593 46.933594zm59.527343-70.289063c-2.101562-5.316406-4.910156-10.328125-8.347656-14.898437l63.507813-35.984375 17.332031 9.8125zm-12.59375-108.910156h34.746094l63.34375 35.910156.273438.152344 34.414062 19.507812.152344.085938 67.660156 38.398438c-3.433594 4.570312-6.242187 9.582031-8.34375 14.898437zm69.347657 0h66.160156l-33.109375 18.773438zm229.316406 132.265625c0 25.921875-21.011719 46.933594-46.933594 46.933594-25.917969 0-46.933593-21.011719-46.933593-46.933594 0-25.917969 21.015624-46.933594 46.933593-46.933594 25.910157.03125 46.90625 21.027344 46.933594 46.933594zm-161.613281-93.867187-17.339844-9.828126 50.382812-28.570312h34.746094zm204.28125-64c0 4.714843-3.820313 8.535156-8.535156 8.535156h-460.796876c-4.714843 0-8.535156-3.820313-8.535156-8.535156v-25.597657h477.867188zm-230.398438-42.664063v-76.800781h85.332032v76.800781zm-17.070312 0h-85.332032v-76.800781h85.332032zm247.46875-76.800781v76.800781h-17.066406v-59.734375c0-9.425781 7.640624-17.066406 17.066406-17.066406zm-34.132813 17.066406v59.734375h-93.867187v-76.800781h76.800781c9.425781 0 17.066406 7.640625 17.066406 17.066406zm-392.535156-17.066406h76.800781v76.800781h-93.867187v-59.734375c0-9.425781 7.640625-17.066406 17.066406-17.066406zm-51.199219-93.867188c9.425782 0 17.066406 7.640625 17.066406 17.066406v153.601563h-17.066406zm0 0"/><path d="m405.332031 418.132812c16.496094 0 29.867188-13.371093 29.867188-29.867187 0-16.492187-13.371094-29.867187-29.867188-29.867187-1.0625.050781-2.121093.15625-3.171875.324218-.113281 0-.207031-.066406-.324218-.066406-.335938.042969-.664063.109375-.992188.195312-15.433594 2.328126-26.457031 16.164063-25.28125 31.726563 1.179688 15.5625 14.164062 27.578125 29.769531 27.554687zm0-42.667968c7.070313 0 12.800781 5.734375 12.800781 12.800781 0 7.070313-5.730468 12.800781-12.800781 12.800781-7.066406 0-12.796875-5.730468-12.796875-12.800781 0-7.066406 5.730469-12.800781 12.796875-12.800781zm0 0"/><path d="m136.535156 388.265625c-.0625-14.777344-10.917968-27.289063-25.542968-29.429687-.300782-.078126-.605469-.136719-.914063-.179688-.101563 0-.195313.050781-.296875.058594-1.03125-.160156-2.070312-.265625-3.113281-.316406-14.691407-.050782-27.242188 10.585937-29.59375 25.089843-2.351563 14.5 6.195312 28.558594 20.152343 33.148438 13.957032 4.589843 29.175782-1.648438 35.894532-14.714844.292968-.441406.550781-.90625.757812-1.394531 1.75-3.847656 2.65625-8.03125 2.65625-12.261719zm-29.867187 12.800781c-7.070313 0-12.800781-5.730468-12.800781-12.800781 0-7.066406 5.730468-12.800781 12.800781-12.800781 7.066406 0 12.796875 5.734375 12.796875 12.800781 0 7.070313-5.730469 12.800781-12.796875 12.800781zm0 0"/></svg>