<svg height="512pt" viewBox="-18 0 512 512.00346" width="512pt" xmlns="http://www.w3.org/2000/svg"><path d="m476.691406 300.140625c0 116.964844-106.726562 211.863281-238.34375 211.863281-131.621094 0-238.347656-94.898437-238.347656-211.863281.00390625-20.347656 3.3125-40.5625 9.800781-59.851563v-.085937c.527344-1.679687 1.058594-3.265625 1.675781-4.945313 1.660157-4.523437 3.019532-9.152343 4.0625-13.859374 1.398438-5.589844 2.3125-11.289063 2.734376-17.035157 2.023437-27.941406 9.367187-55.234375 21.628906-80.421875 2.738281-5.558594 5.738281-11.03125 9.003906-16.328125 5.019531-8.503906 10.625-16.644531 16.773438-24.367187 4.5-5.648438 9.269531-11.03125 14.210937-16.152344 79.117187-81.699219 207.394531-89.804688 296.167969-18.714844 5.667968 4.402344 11.0625 9.148438 16.152344 14.210938 19.902343 19.214844 35.957031 42.042968 47.316406 67.265625 2.605468 5.671875 4.90625 11.476562 6.886718 17.390625 6.578126 18.375 10.617188 37.5625 12.003907 57.027344.84375 10.53125 3.128906 20.898437 6.796875 30.808593 7.582031 20.855469 11.464844 42.871094 11.476562 65.058594zm0 0" fill="#f0c419"/><path d="m248.320312 136.65625-132.855468 47.84375c-.398438.140625-.78125.316406-1.144532.53125l-98.78125 36.367188c1.398438-5.589844 2.3125-11.289063 2.734376-17.035157 2.023437-27.941406 9.367187-55.234375 21.628906-80.421875 1.082031.617188 2.289062.980469 3.53125 1.0625zm0 0" fill="#e6e7e8"/><path d="m439.527344 129.855469-146.007813-8.296875c-.4375-.074219-.882812-.101563-1.324219-.085938l-243.289062-13.859375c5.019531-8.503906 10.625-16.644531 16.773438-24.367187 4.5-5.648438 9.269531-11.03125 14.210937-16.152344 79.117187-81.699219 207.394531-89.804688 296.167969-18.714844 5.667968 4.402344 11.0625 9.148438 16.152344 14.210938 19.902343 19.214844 35.957031 42.042968 47.316406 67.265625zm0 0" fill="#e6e7e8"/><path d="m379.589844 242.761719c.023437 13.03125-3.582032 25.808593-10.417969 36.898437-26.644531-.5625-52.636719 8.25-73.445313 24.894532-24.527343-10.660157-40.207031-35.054688-39.726562-61.792969 0-36.546875 18.804688-75.035157 52.96875-75.035157 34.160156 0 70.621094 38.488282 70.621094 75.035157zm0 0" fill="#fff"/><path d="m220.691406 242.761719c.480469 26.738281-15.199218 51.132812-39.722656 61.792969-20.8125-16.644532-46.804688-25.457032-73.445312-24.894532-6.835938-11.089844-10.445313-23.867187-10.417969-36.898437.78125-18.703125 8.382812-36.476563 21.363281-49.964844l63.203125-22.6875c25.25 8.742187 39.019531 41.402344 39.019531 72.652344zm0 0" fill="#fff"/><path d="m194.207031 326.625c-2.621093.003906-5.113281-1.15625-6.796875-3.171875-39.945312-47.949219-103.15625-33.058594-105.851562-32.394531-4.714844 1.136718-9.464844-1.746094-10.632813-6.457032-1.171875-4.707031 1.679688-9.476562 6.378907-10.679687 3.089843-.792969 76.527343-18.351563 123.683593 38.214844 2.195313 2.632812 2.671875 6.296875 1.21875 9.402343-1.453125 3.105469-4.570312 5.085938-8 5.085938zm0 0" fill="#e57e25"/><path d="m176.554688 229.519531c0 9.75-7.90625 17.65625-17.65625 17.65625s-17.65625-7.90625-17.65625-17.65625 7.90625-17.652343 17.65625-17.652343 17.65625 7.902343 17.65625 17.652343zm0 0" fill="#2c2f38"/><path d="m282.484375 326.625c-3.425781 0-6.546875-1.980469-8-5.085938-1.453125-3.105468-.976563-6.769531 1.21875-9.402343 47.148437-56.546875 120.613281-39.007813 123.683594-38.214844 4.703125 1.203125 7.550781 5.972656 6.382812 10.679687-1.171875 4.710938-5.917969 7.59375-10.636719 6.457032-2.699218-.671875-65.914062-15.574219-105.851562 32.394531-1.679688 2.015625-4.171875 3.175781-6.796875 3.171875zm0 0" fill="#e57e25"/><path d="m335.449219 229.519531c0 9.75-7.902344 17.65625-17.65625 17.65625-9.75 0-17.652344-7.90625-17.652344-17.65625s7.902344-17.652343 17.652344-17.652343c9.753906 0 17.65625 7.902343 17.65625 17.652343zm0 0" fill="#2c2f38"/><path d="m446.414062 147.246094c-.992187.355468-2.039062.535156-3.089843.53125h-.53125l-149.363281-8.5625h-.085938l-44.933594-2.558594h-.089844l-204.886718-11.652344c-1.242188-.082031-2.449219-.445312-3.53125-1.0625 2.738281-5.558594 5.738281-11.03125 9.003906-16.328125l243.289062 13.859375c.441407-.015625.886719.011719 1.324219.085938l146.007813 8.296875c2.605468 5.671875 4.90625 11.476562 6.886718 17.390625zm0 0" fill="#a5a5a4"/><path d="m295.195312 138.597656-1.765624.617188h-.085938l-170.816406 61.527344c-.351563.175781-.617188.265624-.96875.441406l-105.933594 39.019531c-.992188.347656-2.035156.523437-3.089844.527344-.925781-.007813-1.851562-.15625-2.734375-.441407v-.085937c.527344-1.679687 1.058594-3.265625 1.675781-4.945313 1.660157-4.523437 3.019532-9.152343 4.0625-13.859374l98.78125-36.367188c.363282-.214844.746094-.390625 1.144532-.53125l132.855468-47.84375h.089844l40.785156-14.65625c.960938-.347656 1.976563-.523438 3-.527344.441407-.015625.886719.011719 1.324219.085938 4 .601562 7.078125 3.839844 7.476563 7.867187.394531 4.023438-1.992188 7.804688-5.800782 9.171875zm0 0" fill="#a5a5a4"/><path d="m392.210938 62.589844c-1.554688 1.640625-3.660157 2.648437-5.914063 2.824218l-314.4375 19.953126h-.53125c-2.078125 0-4.082031-.753907-5.648437-2.121094 4.5-5.648438 9.269531-11.03125 14.210937-16.152344l296.167969-18.714844c5.667968 4.402344 11.0625 9.148438 16.152344 14.210938zm0 0" fill="#a5a5a4"/><path d="m273.65625 432.554688c-4.875 0-8.828125-3.953126-8.828125-8.828126v-17.652343c0-14.628907-11.855469-26.484375-26.480469-26.484375-14.628906 0-26.484375 11.855468-26.484375 26.484375v17.652343c0 4.875-3.953125 8.828126-8.828125 8.828126s-8.828125-3.953126-8.828125-8.828126v-17.652343c0-24.378907 19.761719-44.140625 44.140625-44.140625 24.375 0 44.136719 19.761718 44.136719 44.140625v17.652343c0 4.875-3.953125 8.828126-8.828125 8.828126zm0 0" fill="#802d40"/><g fill="#cc4b4c"><path d="m86.679688 414.898438c-.660157 0-1.316407-.070313-1.960938-.210938-2.289062-.515625-4.277344-1.925781-5.527344-3.914062-1.25-1.988282-1.65625-4.390626-1.128906-6.679688l16.050781-70.621094c.699219-3.074218 2.988281-5.542968 6.003907-6.476562 3.011718-.929688 6.296874-.183594 8.609374 1.960937 2.316407 2.144531 3.308594 5.359375 2.609376 8.4375l-16.050782 70.621094c-.90625 4.023437-4.480468 6.882813-8.605468 6.882813zm0 0"/><path d="m158.898438 361.933594h-80.25c-4.878907 0-8.828126-3.953125-8.828126-8.828125s3.949219-8.824219 8.828126-8.824219h80.25c4.875 0 8.828124 3.949219 8.828124 8.824219s-3.953124 8.828125-8.828124 8.828125zm0 0"/><path d="m150.875 397.246094h-80.253906c-4.875 0-8.828125-3.953125-8.828125-8.828125s3.953125-8.828125 8.828125-8.828125h80.253906c4.875 0 8.828125 3.953125 8.828125 8.828125s-3.953125 8.828125-8.828125 8.828125zm0 0"/><path d="m126.800781 414.898438c-.660156 0-1.316406-.070313-1.960937-.210938-2.289063-.515625-4.277344-1.925781-5.527344-3.914062-1.25-1.988282-1.65625-4.390626-1.128906-6.679688l16.050781-70.621094c1.082031-4.753906 5.816406-7.730468 10.570313-6.648437 4.757812 1.082031 7.734374 5.8125 6.652343 10.570312l-16.050781 70.621094c-.90625 4.023437-4.480469 6.882813-8.605469 6.882813zm0 0"/></g><path d="m158.898438 220.691406c0 4.878906-3.953126 8.828125-8.828126 8.828125s-8.828124-3.949219-8.828124-8.828125c0-4.875 3.953124-8.824218 8.828124-8.824218s8.828126 3.949218 8.828126 8.824218zm0 0" fill="#fff"/><path d="m317.792969 220.691406c0 4.878906-3.949219 8.828125-8.824219 8.828125s-8.828125-3.949219-8.828125-8.828125c0-4.875 3.953125-8.824218 8.828125-8.824218s8.824219 3.949218 8.824219 8.824218zm0 0" fill="#fff"/></svg>