<?xml version="1.0"?>
<svg xmlns="http://www.w3.org/2000/svg" height="512px" viewBox="0 0 448.00092 448" width="512px"><g><path d="m224 45.761719 57.199219-45.761719h-114.398438zm0 0" data-original="#000000" class="active-path" data-old_color="#000000" fill="#662121"/><path d="m448 200v-119.757812c.023438-6.539063-3.96875-12.417969-10.054688-14.800782l-102.007812-33.03125c-.804688-.277344-1.648438-.417968-2.496094-.410156h-2.402344l-69.726562 61.984375c-3.167969 2.816406-7.980469 2.671875-10.976562-.328125l-26.335938-26.34375-26.34375 26.34375c-2.992188 3-7.808594 3.144531-10.976562.328125l-69.726563-61.984375h-2.398437c-.785157-.011719-1.5625.105469-2.304688.34375l-102.648438 33.257812c-5.875 2.480469-9.664062 8.265626-9.601562 14.640626v119.757812h64v-48h16v296h288v-296h16v48zm0 0" data-original="#000000" class="active-path" data-old_color="#000000" fill="#662121"/><path d="m317.183594 22.914062-14.628906-19.511718-66.578126 53.261718 20.351563 20.34375zm0 0" data-original="#000000" class="active-path" data-old_color="#000000" fill="#662121"/><path d="m130.816406 22.914062 60.855469 54.09375 20.351563-20.34375-66.574219-53.261718zm0 0" data-original="#000000" class="active-path" data-old_color="#000000" fill="#662121"/></g> </svg>
