<?xml version="1.0" standalone="no"?><!-- Generator: Gravit.io --><svg xmlns="http://www.w3.org/2000/svg" xmlns:xlink="http://www.w3.org/1999/xlink" style="isolation:isolate" viewBox="499 414 52 52" width="52" height="52"><defs><clipPath id="_clipPath_Kx0ZoFRBy3cPHAgsWOW72DLkNlkOUcMe"><rect x="499" y="414" width="52" height="52"/></clipPath></defs><g clip-path="url(#_clipPath_Kx0ZoFRBy3cPHAgsWOW72DLkNlkOUcMe)"><g><path d=" M 525 414 C 510.663 414 499 425.663 499 440 C 499 454.337 510.663 466 525 466 C 539.337 466 551 454.337 551 440 C 551 425.663 539.337 414 525 414 Z  M 527 455 C 527 456.104 526.104 457 525 457 C 523.896 457 523 456.104 523 455 L 523 453 C 523 451.896 523.896 451 525 451 C 526.104 451 527 451.896 527 453 L 527 455 Z  M 529.874 438.567 C 528.102 439.711 527 441.853 527 444.158 L 527 447 C 527 448.104 526.104 449 525 449 C 523.896 449 523 448.104 523 447 L 523 444.158 C 523 440.452 524.76 437.105 527.706 435.206 C 529.166 434.264 530.023 432.665 529.999 430.929 C 529.963 428.294 527.706 426.037 525.071 426.001 C 523.705 425.934 522.449 426.493 521.489 427.439 C 520.529 428.387 520 429.651 520 431 C 520 432.104 519.104 433 518 433 C 516.896 433 516 432.104 516 431 C 516 428.572 516.952 426.297 518.681 424.592 C 520.378 422.918 522.617 422 524.998 422 C 525.041 422 525.084 422.001 525.128 422.001 C 529.952 422.068 533.932 426.048 533.999 430.872 C 534.043 433.996 532.501 436.873 529.874 438.567 Z " fill="rgb(0,255,255)"/></g></g></svg>