<svg height="512pt" viewBox="0 -13 512.03292 512" width="512pt" xmlns="http://www.w3.org/2000/svg"><path d="m485.53125 291.328125c0 107.257813-86.949219 194.207031-194.207031 194.207031-107.257813 0-194.207031-86.949218-194.207031-194.207031s86.949218-194.207031 194.207031-194.207031c107.257812 0 194.207031 86.949218 194.207031 194.207031zm0 0" fill="#f0c419"/><g fill="#f29c1f"><path d="m282.496094 295.742188c0 31.6875-25.691406 57.378906-57.378906 57.378906-31.691407 0-57.378907-25.691406-57.378907-57.378906 0-31.691407 25.6875-57.382813 57.378907-57.382813 31.6875 0 57.378906 25.691406 57.378906 57.382813zm0 0"/><path d="m430.632812 295.742188c0 31.6875-25.691406 57.378906-57.378906 57.378906-31.691406 0-57.382812-25.691406-57.382812-57.378906 0-31.691407 25.691406-57.382813 57.382812-57.382813 31.6875 0 57.378906 25.691406 57.378906 57.382813zm0 0"/><path d="m280.820312 282.234375c-41.757812-7.769531-60.824218.792969-86.601562 17.921875-7.40625 5-15.980469 8.011719-24.890625 8.738281-.089844-.265625-.179687-.617187-.265625-.882812-.890625-4.03125-1.335938-8.144531-1.324219-12.269531-.039062-16.03125 6.65625-31.339844 18.449219-42.199219l59.320312-11.386719c17.660157 6.714844 30.875 21.710938 35.3125 40.078125zm0 0"/></g><path d="m282.496094 295.742188c-.128906 29.027343-21.917969 53.386718-50.753906 56.738281-28.835938 3.351562-55.632813-15.359375-62.414063-43.585938 8.910156-.726562 17.484375-3.738281 24.890625-8.738281 25.777344-17.128906 44.84375-25.691406 86.601562-17.921875 1.140626 4.410156 1.707032 8.949219 1.675782 13.507813zm0 0" fill="#fff"/><path d="m243.265625 301.132812c0 8.667969-7.027344 15.695313-15.695313 15.695313-8.667968 0-15.695312-7.027344-15.695312-15.695313 0-8.667968 7.027344-15.695312 15.695312-15.695312 8.667969 0 15.695313 7.027344 15.695313 15.695312zm0 0" fill="#2c2f38"/><path d="m484.734375 198.460938c-4.234375-46.609376-31.691406-198.445313-211.066406-198.445313h-17.65625c-198.621094 0-211.066407 186.175781-211.773438 209.480469-.085937 1.589844-.085937 2.382812-.085937 2.382812l8.828125 52.964844 197.515625-46.203125 127.460937-24.636719 93.492188 24.636719 13.242187-20.179687" fill="#90bae1"/><path d="m79.460938 237.917969c-4.875 0-8.828126-3.949219-8.828126-8.824219-.835937-26.375 5.828126-52.449219 19.21875-75.1875 2.828126-3.820312 8.171876-4.71875 12.09375-2.027344 3.921876 2.6875 5.003907 8 2.453126 12.011719-11.222657 19.855469-16.792969 42.40625-16.109376 65.203125 0 2.339844-.929687 4.585938-2.585937 6.242188-1.65625 1.652343-3.902344 2.582031-6.242187 2.582031zm0 0" fill="#4482c3"/><path d="m374.304688 432.4375c5.335937 1.023438 10.679687-1.730469 12.941406-6.671875 2.257812-4.941406.847656-10.789063-3.417969-14.152344-24.039063-18.84375-53.199219-30-83.675781-32.011719-30.464844 2.019532-59.613282 13.171876-83.644532 32.011719-4.25 3.363281-5.660156 9.195313-3.410156 14.128907 2.25 4.933593 7.574219 7.695312 12.902344 6.695312 24.570312-3.507812 49.335938-5.449219 74.152344-5.820312 24.8125.371093 49.582031 2.3125 74.152344 5.820312zm0 0" fill="#802d40"/><path d="m229.53125 300.15625c0 4.875-3.953125 8.824219-8.828125 8.824219s-8.828125-3.949219-8.828125-8.824219c0-4.878906 3.953125-8.828125 8.828125-8.828125s8.828125 3.949219 8.828125 8.828125zm0 0" fill="#fff"/><path d="m169.183594 316.875c-4.875.046875-8.863282-3.871094-8.910156-8.746094-.046876-4.875 3.867187-8.863281 8.742187-8.910156 7.25-.054688 14.316406-2.265625 20.304687-6.347656 27.039063-18.027344 46.785157-28.34375 93.238282-19.3125 3.144531.546875 5.75 2.753906 6.8125 5.765625 1.058594 3.011719.40625 6.363281-1.703125 8.761719-2.109375 2.398437-5.351563 3.46875-8.472657 2.800781-40.703124-7.882813-56.1875.738281-80.050781 16.65625-8.796875 5.941406-19.132812 9.183593-29.746093 9.332031zm0 0" fill="#e57e25"/><path d="m317.804688 282.234375c41.757812-7.769531 60.824218.792969 86.601562 17.921875 7.40625 5 15.980469 8.011719 24.890625 8.738281.089844-.265625.179687-.617187.265625-.882812.890625-4.03125 1.335938-8.144531 1.324219-12.269531.039062-16.03125-6.65625-31.339844-18.449219-42.199219l-59.320312-11.386719c-17.660157 6.714844-30.875 21.710938-35.3125 40.078125zm0 0" fill="#f29c1f"/><path d="m316.164062 295.742188c.128907 29.027343 21.917969 53.386718 50.753907 56.738281 28.835937 3.351562 55.632812-15.359375 62.417969-43.585938-8.914063-.726562-17.488282-3.738281-24.894532-8.738281-25.777344-17.128906-44.84375-25.691406-86.601562-17.921875-1.140625 4.410156-1.707032 8.949219-1.675782 13.507813zm0 0" fill="#fff"/><path d="m386.785156 301.132812c0 8.667969-7.027344 15.695313-15.695312 15.695313-8.667969 0-15.695313-7.027344-15.695313-15.695313 0-8.667968 7.027344-15.695312 15.695313-15.695312 8.667968 0 15.695312 7.027344 15.695312 15.695312zm0 0" fill="#2c2f38"/><path d="m386.785156 300.15625c0 4.875-3.953125 8.824219-8.828125 8.824219s-8.828125-3.949219-8.828125-8.824219c0-4.878906 3.953125-8.828125 8.828125-8.828125s8.828125 3.949219 8.828125 8.828125zm0 0" fill="#fff"/><path d="m429.476562 316.875c4.875.046875 8.863282-3.871094 8.910157-8.746094s-3.867188-8.863281-8.742188-8.910156c-7.25-.054688-14.316406-2.265625-20.304687-6.347656-27.039063-18.027344-46.785156-28.34375-93.238282-19.3125-3.144531.546875-5.75 2.753906-6.8125 5.765625-1.058593 3.011719-.40625 6.363281 1.703126 8.761719 2.109374 2.398437 5.351562 3.46875 8.472656 2.800781 40.703125-7.882813 56.1875.738281 80.050781 16.65625 8.796875 5.941406 19.132813 9.183593 29.746094 9.332031zm0 0" fill="#e57e25"/><path d="m79.460938 229.09375v22.683594c0 18.363281 15.359374 31.25 29.925781 24.984375 118.960937-51.199219 253.742187-51.199219 372.699219 0 14.566406 6.265625 29.925781-6.621094 29.925781-24.984375v-22.683594c.390625-10.121094-4.976563-19.589844-13.859375-24.453125-128.054688-60.96875-276.773438-60.96875-404.832032 0-8.878906 4.863281-14.246093 14.332031-13.859374 24.453125zm0 0" fill="#fff"/><path d="m105.945312 264.84375c0 29.253906-23.714843 52.964844-52.964843 52.964844-29.253907 0-52.9687502-23.710938-52.9687502-52.964844 0-29.25 23.7148432-52.964844 52.9687502-52.964844 29.25 0 52.964843 23.714844 52.964843 52.964844zm0 0" fill="#fff"/><path d="m512.011719 229.09375v22.683594c0 18.363281-15.359375 31.25-29.925781 24.984375-118.957032-51.199219-253.738282-51.199219-372.699219 0-14.566407 6.265625-29.925781-6.621094-29.925781-24.984375v-22.683594c-.054688-5.875 1.667968-11.632812 4.945312-16.507812-.355469 1.621093-.535156 3.28125-.53125 4.941406v21.804687c0 17.566407 14.742188 30.015625 28.777344 24.011719 114.28125-49.199219 243.769531-49.199219 358.046875 0 13.949219 6.003906 28.691406-6.445312 28.691406-24.011719v-21.804687c.046875-4.902344-1.167969-9.738282-3.53125-14.035156.792969.441406 1.589844.792968 2.292969 1.148437 8.882812 4.863281 14.25 14.332031 13.859375 24.453125zm0 0" fill="#e6e7e8"/><path d="m103.296875 281.351562c-8.039063 24.527344-32.589844 39.6875-58.117187 35.890626-25.53125-3.792969-44.609376-25.4375-45.1679692-51.242188-.5585938-25.800781 17.5625002-48.253906 42.9023432-53.152344-19.585937 8.027344-31.671874 27.863282-29.816406 48.949219 1.851563 21.082031 17.210938 38.507813 37.898438 42.992187 20.683594 4.484376 41.878906-5.011718 52.300781-23.4375zm0 0" fill="#e6e7e8"/></svg>