<?xml version="1.0" standalone="no"?><!-- Generator: Gravit.io --><svg xmlns="http://www.w3.org/2000/svg" xmlns:xlink="http://www.w3.org/1999/xlink" style="isolation:isolate" viewBox="0 0 200 200" width="200" height="200"><defs><clipPath id="_clipPath_Gj2VN2XXxTp8yAEbz0GGmlzOcSnZyukn"><rect width="200" height="200"/></clipPath></defs><g clip-path="url(#_clipPath_Gj2VN2XXxTp8yAEbz0GGmlzOcSnZyukn)"><circle vector-effect="non-scaling-stroke" cx="100" cy="100" r="100" fill="rgb(255,0,0)"/><g><g><path d=" M 136.522 92.132 L 136.522 151.23 C 145.683 149.916 152.746 142.015 152.746 132.497 L 152.746 110.867 C 152.745 101.347 145.683 93.446 136.522 92.132 Z  M 133.819 156.832 C 132.326 156.832 131.115 155.621 131.115 154.128 L 131.115 89.236 C 131.115 87.741 132.326 86.533 133.819 86.533 C 147.235 86.533 158.153 97.448 158.153 110.867 L 158.153 132.498 C 158.153 145.917 147.235 156.832 133.819 156.832 Z " fill="rgb(0,0,255)"/><path d=" M 131.096 173.054 L 120.299 175.758 C 101.548 179.384 82.835 179.346 66.223 175.758 L 55.427 173.054 C 52.279 172.527 50 167.809 50 164.943 L 50 86.532 L 136.522 86.532 L 136.522 164.943 C 136.522 167.809 134.243 172.527 131.096 173.054 Z " fill="rgb(255,255,0)"/><g><path d=" M 93.261 67.605 C 92.563 67.605 91.863 67.335 91.336 66.799 C 87.164 62.563 85.082 58.158 85.152 53.705 C 85.22 49.371 87.321 45.201 91.395 41.313 C 94.443 38.477 95.992 35.581 96.027 32.685 C 96.065 29.695 94.496 26.629 91.371 23.573 C 90.303 22.53 90.284 20.818 91.328 19.75 C 92.372 18.682 94.086 18.663 95.151 19.707 C 99.374 23.835 101.489 28.224 101.435 32.75 C 101.425 33.541 101.349 34.325 101.208 35.101 C 100.556 38.673 98.51 42.078 95.105 45.247 C 92.139 48.076 90.603 50.958 90.558 53.791 C 90.511 56.739 92.072 59.84 95.187 63.003 C 96.236 64.066 96.222 65.78 95.16 66.829 C 94.632 67.346 93.945 67.605 93.261 67.605 Z " fill="rgb(134,96,96)"/><linearGradient id="_lgradient_1" x1="0" y1="0.5" x2="1" y2="0.5" gradientTransform="matrix(16.285,0,0,48.669,117.597,18.936)" gradientUnits="userSpaceOnUse"><stop offset="0%" stop-opacity="1" style="stop-color:rgb(145,120,120)"/><stop offset="100%" stop-opacity="1" style="stop-color:rgb(0,0,0)"/></linearGradient><path d=" M 125.707 67.605 C 125.01 67.605 124.309 67.335 123.782 66.799 C 119.61 62.563 117.528 58.158 117.598 53.705 C 117.666 49.371 119.767 45.201 123.841 41.313 C 126.889 38.477 128.438 35.581 128.473 32.685 C 128.511 29.695 126.943 26.629 123.817 23.573 C 122.749 22.53 122.73 20.818 123.774 19.75 C 124.818 18.682 126.532 18.663 127.597 19.707 C 131.821 23.835 133.935 28.224 133.881 32.75 C 133.827 37.182 131.696 41.389 127.551 45.247 C 124.585 48.076 123.049 50.958 123.004 53.791 C 122.958 56.739 124.518 59.84 127.633 63.003 C 128.682 64.066 128.668 65.78 127.606 66.829 C 127.078 67.346 126.391 67.605 125.707 67.605 Z " fill="url(#_lgradient_1)"/><path d=" M 66.159 67.605 C 65.462 67.605 64.762 67.335 64.234 66.799 C 60.062 62.563 57.98 58.158 58.05 53.705 C 58.118 49.371 60.219 45.201 64.293 41.313 C 67.341 38.477 68.89 35.581 68.925 32.685 C 68.963 29.695 67.395 26.629 64.269 23.573 C 63.201 22.53 63.182 20.818 64.226 19.75 C 65.27 18.682 66.984 18.663 68.049 19.707 C 72.273 23.835 74.387 28.224 74.333 32.75 C 74.279 37.182 72.148 41.389 68.003 45.247 C 65.037 48.076 63.501 50.958 63.456 53.791 C 63.41 56.739 64.97 59.84 68.085 63.003 C 69.134 64.066 69.12 65.78 68.058 66.829 C 67.53 67.346 66.844 67.605 66.159 67.605 Z " fill="rgb(138,103,103)"/><path d=" M 136.522 86.532 L 93.261 86.532 L 50 86.532 L 50 75.717 L 93.261 75.717 L 136.522 75.717 L 136.522 86.532 Z " fill="rgb(0,255,0)"/></g><path d=" M 114.892 127.089 C 114.892 115.144 105.207 105.458 93.261 105.458 C 81.315 105.458 71.63 115.143 71.63 127.089 C 71.63 139.035 81.315 148.72 93.261 148.72 C 105.207 148.72 114.892 139.035 114.892 127.089 Z " fill="rgb(249,218,73)"/><path d=" M 93.261 140.608 C 85.807 140.608 79.742 134.544 79.742 127.089 C 79.742 119.635 85.807 113.57 93.261 113.57 C 94.754 113.57 95.965 114.779 95.965 116.274 C 95.965 117.769 94.754 118.978 93.261 118.978 C 88.789 118.978 85.15 122.617 85.15 127.089 C 85.15 131.561 88.789 135.201 93.261 135.201 C 97.733 135.201 101.373 131.561 101.373 127.089 C 101.373 125.594 102.584 124.385 104.076 124.385 C 105.569 124.385 106.78 125.594 106.78 127.089 C 106.78 134.544 100.715 140.608 93.261 140.608 Z " fill="rgb(248,91,87)"/><path d=" M 131.096 162.239 L 120.299 164.943 C 102.078 168.552 83.319 168.544 66.223 164.943 L 55.427 162.239 C 52.279 161.65 50 157.329 50 154.128 L 50 164.943 C 50 168.144 52.279 172.465 55.427 173.054 L 66.223 175.758 C 83.928 179.363 102.706 179.363 120.299 175.758 L 131.096 173.054 C 134.243 172.465 136.522 168.144 136.522 164.943 L 136.522 154.128 C 136.522 157.329 134.243 161.65 131.096 162.239 Z " fill="rgb(0,255,0)"/></g></g></g></svg>