<svg height="512pt" viewBox="-94 0 512 512.00003" width="512pt" xmlns="http://www.w3.org/2000/svg"><path d="m145.066406 503.464844s-5.292968 0-12.800781-.59375c-19.113281-1.625-52.222656-7.167969-46.164063-27.136719 5.445313-24.488281 8.195313-49.496094 8.191407-74.582031h101.460937c.070313 25.085937 2.84375 50.089844 8.277344 74.582031 8.449219 27.730469-58.964844 27.730469-58.964844 27.730469zm0 0" fill="#00838f"/><path d="m238.078125 213.332031.855469 25.601563h-187.734375v-25.601563s-97.023438-195.328125 80.726562-204.457031c4.09375-.257812 8.359375-.339844 12.714844-.339844 50.855469.082032 81.492187 13.992188 98.984375 34.644532l20.820312 67.667968c-2.160156 35.53125-11.109374 70.320313-26.367187 102.484375zm0 0" fill="#cfd8dc"/><path d="m212.5625 213.332031.855469 25.601563h-162.21875v-25.601563s-97.023438-195.328125 80.726562-204.457031c43.261719 2.21875 70.226563 15.445312 86.183594 34.304688l20.824219 67.667968c-2.164063 35.53125-11.113282 70.320313-26.371094 102.484375zm0 0" fill="#f4f4f4"/><path d="m264.53125 8.535156 18.101562 33.097656 33.097657 18.101563-33.097657 18.097656-18.101562 33.101563-18.097656-33.101563-33.101563-18.097656 33.101563-18.101563zm0 0" fill="#f3d55b"/><path d="m145.066406 68.265625 18.097656 33.101563 33.101563 18.097656-33.101563 18.101562-18.097656 33.101563-18.101562-33.101563-33.097656-18.101562 33.097656-18.097656zm0 0" fill="#f3d55b"/><path d="m264.53125 25.601562 12.066406 22.066407 22.066406 12.066406-22.066406 12.066406-12.066406 22.066407-12.066406-22.066407-22.066406-12.066406 22.066406-12.066406zm0 0" fill="#fdd834"/><path d="m145.066406 85.332031 12.066406 22.070313 22.066407 12.0625-22.066407 12.066406-12.066406 22.070312-12.066406-22.070312-22.066406-12.066406 22.066406-12.0625zm0 0" fill="#fdd834"/><path d="m281.597656 238.933594c0 14.136718-11.460937 25.601562-25.597656 25.601562h-221.867188c-14.140624 0-25.601562-11.464844-25.601562-25.601562 0-14.140625 11.460938-25.601563 25.601562-25.601563h221.867188c14.136719 0 25.597656 11.460938 25.597656 25.601563zm0 0" fill="#00838f"/><path d="m132.265625 502.871094c-19.113281-1.625-52.222656-7.167969-46.164063-27.136719 5.445313-24.488281 8.195313-49.496094 8.191407-74.582031h75.859375c.070312 25.085937 2.847656 50.089844 8.277344 74.582031 6.058593 19.96875-27.050782 25.511719-46.164063 27.136719zm0 0" fill="#00bcd4"/><path d="m256 238.933594c0 14.136718-11.460938 25.601562-25.601562 25.601562h-196.265626c-14.140624 0-25.601562-11.464844-25.601562-25.601562 0-14.140625 11.460938-25.601563 25.601562-25.601563h196.265626c14.140624 0 25.601562 11.460938 25.601562 25.601563zm0 0" fill="#00bcd4"/><path d="m281.597656 290.132812c0 14.140626-11.460937 25.601563-25.597656 25.601563 0 0 0 93.867187-110.933594 93.867187-4.4375 0-8.703125-.171874-12.800781-.511718-98.132813-6.828125-98.132813-93.355469-98.132813-93.355469-14.140624 0-25.601562-11.460937-25.601562-25.601563 0-14.136718 11.460938-25.597656 25.601562-25.597656h221.867188c14.136719 0 25.597656 11.460938 25.597656 25.597656zm0 0" fill="#cfd8dc"/><path d="m256 290.132812c0 14.140626-11.460938 25.601563-25.601562 25.601563 0 0 0 86.527344-98.132813 93.355469-98.132813-6.828125-98.132813-93.355469-98.132813-93.355469-14.140624 0-25.601562-11.460937-25.601562-25.601563 0-14.136718 11.460938-25.597656 25.601562-25.597656h196.265626c14.140624 0 25.601562 11.460938 25.601562 25.597656zm0 0" fill="#f4f4f4"/><path d="m319.820312 52.25-30.898437-16.90625-16.90625-30.90625c-1.628906-2.558594-4.453125-4.105469-7.484375-4.105469s-5.851562 1.546875-7.484375 4.105469l-14.136719 25.847656c-21.582031-19.984375-54.503906-30.2187498-98.289062-30.285156-55.464844.09375-93.558594 16.332031-113.296875 48.238281-31.71875 51.277344-5.648438 127.011719 6.699219 156.5625h-3.890626c-14.234374-.058593-26.996093 8.753907-31.980468 22.085938s-1.132813 28.355469 9.648437 37.648437c-.589843.511719-1.238281.917969-1.792969 1.472656-8.734374 8.742188-12.0625 21.527344-8.699218 33.417969 3.363281 11.894531 12.890625 21.039063 24.914062 23.910157 3.699219 36.351562 26.269532 68.070312 59.398438 83.480468-.222656 22.351563-2.796875 44.613282-7.679688 66.425782-2.28125 6.730468-1.101562 14.152343 3.15625 19.839843 13.324219 18.003907 55.621094 18.917969 63.96875 18.917969 8.34375 0 50.644532-.914062 64-18.917969 4.253906-5.675781 5.4375-13.085937 3.164063-19.804687-4.945313-21.808594-7.535157-44.082032-7.730469-66.441406 33.152344-15.402344 55.742188-47.125 59.453125-83.492188 12.433594-2.929688 22.171875-12.589844 25.207031-24.996094 3.035156-12.410156-1.144531-25.472656-10.820312-33.8125 10.78125-9.292968 14.628906-24.320312 9.644531-37.652344-4.988281-13.332031-17.75-22.144531-31.984375-22.082031h-4.78125c12.386719-28.972656 19.710938-59.859375 21.648438-91.308593l16.054687-29.34375 30.898437-16.90625c2.734376-1.496094 4.433594-4.367188 4.433594-7.484376 0-3.117187-1.699218-5.984374-4.433594-7.484374zm-123.957031 425.976562c.6875 1.546876.484375 3.34375-.527343 4.699219-6.117188 8.261719-33.074219 12.007813-50.269532 12.007813-17.195312 0-44.152344-3.746094-50.269531-12.007813-1.019531-1.367187-1.214844-3.179687-.523437-4.734375 5.078124-21.484375 7.828124-43.453125 8.203124-65.527344 13.882813 3.75 28.210938 5.589844 42.589844 5.46875 14.363282.121094 28.675782-1.71875 42.546875-5.460937.34375 22.085937 3.113281 44.070313 8.25 65.554687zm77.203125-188.09375c0 9.425782-7.640625 17.066407-17.066406 17.066407-4.714844 0-8.535156 3.820312-8.535156 8.535156 0 3.488281-1.621094 85.332031-102.398438 85.332031-100.78125 0-102.402344-81.867187-102.402344-85.332031 0-4.714844-3.820312-8.535156-8.53125-8.535156-9.425781 0-17.066406-7.640625-17.066406-17.066407 0-9.425781 7.640625-17.066406 17.066406-17.066406h221.867188c9.425781 0 17.066406 7.640625 17.066406 17.066406zm0-51.199218c0 9.425781-7.640625 17.066406-17.066406 17.066406h-221.867188c-9.425781 0-17.066406-7.640625-17.066406-17.066406 0-9.425782 7.640625-17.066406 17.066406-17.066406h221.867188c9.425781 0 17.066406 7.640624 17.066406 17.066406zm-216.414062-34.132813c-8.945313-20.070312-40.773438-99.148437-10.8125-147.578125 16.453125-26.5625 49.671875-40.070312 98.78125-40.15625 38.023437.058594 66.558594 8.15625 84.949218 24.0625l-20.324218 11.09375c-2.734375 1.5-4.433594 4.367188-4.433594 7.484375 0 3.117188 1.699219 5.988281 4.433594 7.484375l30.898437 16.90625 15.683594 28.671875c-2.210937 31.808594-10.066406 62.972657-23.203125 92.03125zm221.867187-134.453125c-1.445312.785156-2.628906 1.972656-3.414062 3.414063l-10.574219 19.386719-10.613281-19.410157c-.785157-1.445312-1.972657-2.628906-3.414063-3.414062l-19.386718-10.589844 19.402343-10.617187c1.441407-.785157 2.628907-1.96875 3.414063-3.414063l10.597656-19.386719 10.617188 19.414063c.785156 1.441406 1.96875 2.628906 3.414062 3.414062l19.386719 10.589844zm0 0"/><path d="m200.351562 111.984375-30.898437-16.90625-16.902344-30.90625c-1.632812-2.558594-4.453125-4.105469-7.484375-4.105469s-5.855468 1.546875-7.484375 4.105469l-16.90625 30.90625-30.898437 16.90625c-2.734375 1.496094-4.433594 4.367187-4.433594 7.480469 0 3.117187 1.699219 5.988281 4.433594 7.484375l30.898437 16.90625 16.90625 30.90625c1.496094 2.734375 4.367188 4.433593 7.484375 4.433593 3.117188 0 5.984375-1.699218 7.484375-4.433593l16.902344-30.90625 30.898437-16.90625c2.734376-1.496094 4.433594-4.367188 4.433594-7.484375 0-3.113282-1.699218-5.984375-4.433594-7.480469zm-41.273437 18.097656c-1.445313.785157-2.628906 1.972657-3.414063 3.414063l-10.597656 19.386718-10.617187-19.414062c-.785157-1.441406-1.96875-2.625-3.414063-3.414062l-19.386718-10.589844 19.40625-10.613282c1.441406-.785156 2.625-1.972656 3.414062-3.414062l10.597656-19.386719 10.613282 19.414063c.785156 1.441406 1.972656 2.625 3.414062 3.410156l19.386719 10.589844zm0 0"/></svg>